<svg width="93" height="93" viewBox="0 0 93 93" fill="none" xmlns="http://www.w3.org/2000/svg">
<g filter="url(#filter0_d_378_240)">
<path d="M49.9625 11.7471C49.9215 11.7471 49.8866 11.7386 49.8579 11.7216C49.8292 11.7047 49.8067 11.675 49.7903 11.6325L49.4336 10.767L48.5357 10.3597C48.4947 10.3427 48.466 10.3194 48.4496 10.2897C48.4332 10.26 48.425 10.2239 48.425 10.1815C48.425 10.139 48.4332 10.103 48.4496 10.0733C48.466 10.0436 48.4947 10.0202 48.5357 10.0033L49.4336 9.60867L49.7903 8.78131C49.8067 8.73888 49.8292 8.70918 49.8579 8.69221C49.8866 8.67523 49.9215 8.66675 49.9625 8.66675C50.0035 8.66675 50.0383 8.67523 50.067 8.69221C50.0957 8.70918 50.1183 8.73888 50.1347 8.78131L50.4914 9.60867L51.3893 10.0033C51.4303 10.0202 51.459 10.0436 51.4754 10.0733C51.4918 10.103 51.5 10.139 51.5 10.1815C51.5 10.2239 51.4918 10.26 51.4754 10.2897C51.459 10.3194 51.4303 10.3427 51.3893 10.3597L50.4914 10.767L50.1347 11.6325C50.1183 11.675 50.0957 11.7047 50.067 11.7216C50.0383 11.7386 50.0035 11.7471 49.9625 11.7471ZM49.9625 19.3334C49.9297 19.3334 49.8969 19.3249 49.8641 19.308C49.8313 19.291 49.8067 19.2613 49.7903 19.2189L49.4336 18.3915L48.548 17.9969C48.507 17.9799 48.4783 17.9566 48.4619 17.9269C48.4455 17.8972 48.4373 17.8611 48.4373 17.8187C48.4373 17.7763 48.4455 17.7402 48.4619 17.7105C48.4783 17.6808 48.507 17.6575 48.548 17.6405L49.4336 17.2459L49.7903 16.3676C49.8067 16.3252 49.8292 16.2955 49.8579 16.2785C49.8866 16.2616 49.9215 16.2531 49.9625 16.2531C50.0035 16.2531 50.0383 16.2616 50.067 16.2785C50.0957 16.2955 50.1183 16.3252 50.1347 16.3676L50.4914 17.2459L51.377 17.6405C51.418 17.6575 51.4467 17.6808 51.4631 17.7105C51.4795 17.7402 51.4877 17.7763 51.4877 17.8187C51.4877 17.8611 51.4795 17.8972 51.4631 17.9269C51.4467 17.9566 51.418 17.9799 51.377 17.9969L50.4914 18.3915L50.1347 19.2189C50.1183 19.2613 50.0937 19.291 50.0609 19.308C50.0281 19.3249 49.9953 19.3334 49.9625 19.3334ZM44.5627 17.1313C44.4971 17.1313 44.4336 17.1123 44.3721 17.0741C44.3106 17.0359 44.2634 16.9828 44.2306 16.915L43.4311 15.1457L41.7091 14.3438C41.6435 14.3098 41.5923 14.261 41.5554 14.1974C41.5185 14.1337 41.5 14.068 41.5 14.0001C41.5 13.9322 41.5185 13.8664 41.5554 13.8028C41.5923 13.7391 41.6435 13.6903 41.7091 13.6564L43.4311 12.8545L44.2306 11.0979C44.2634 11.0216 44.3106 10.9643 44.3721 10.9261C44.4336 10.8879 44.4971 10.8688 44.5627 10.8688C44.6283 10.8688 44.6919 10.8879 44.7534 10.9261C44.8149 10.9643 44.862 11.0173 44.8948 11.0852L45.7066 12.8545L47.4164 13.6564C47.4902 13.6903 47.5455 13.7391 47.5824 13.8028C47.6193 13.8664 47.6378 13.9322 47.6378 14.0001C47.6378 14.068 47.6193 14.1337 47.5824 14.1974C47.5455 14.261 47.4902 14.3098 47.4164 14.3438L45.7066 15.1457L44.8948 16.915C44.862 16.9913 44.8149 17.0465 44.7534 17.0804C44.6919 17.1144 44.6283 17.1313 44.5627 17.1313Z" fill="#603CFF"/>
</g>
<defs>
<filter id="filter0_d_378_240" x="0.549999" y="0.216747" width="91.9" height="92.5667" filterUnits="userSpaceOnUse" color-interpolation-filters="sRGB">
<feFlood flood-opacity="0" result="BackgroundImageFix"/>
<feColorMatrix in="SourceAlpha" type="matrix" values="0 0 0 0 0 0 0 0 0 0 0 0 0 0 0 0 0 0 127 0" result="hardAlpha"/>
<feOffset dy="32.5"/>
<feGaussianBlur stdDeviation="20.475"/>
<feComposite in2="hardAlpha" operator="out"/>
<feColorMatrix type="matrix" values="0 0 0 0 0.262745 0 0 0 0 0.0941176 0 0 0 0 1 0 0 0 0.28 0"/>
<feBlend mode="normal" in2="BackgroundImageFix" result="effect1_dropShadow_378_240"/>
<feBlend mode="normal" in="SourceGraphic" in2="effect1_dropShadow_378_240" result="shape"/>
</filter>
</defs>
</svg>
