<svg width="41" height="40" viewBox="0 0 41 40" fill="none" xmlns="http://www.w3.org/2000/svg">
<path d="M11.9167 30V26.6667M20.25 30V25M28.5833 30V21.6667M4.41667 20C4.41667 12.5361 4.41667 8.80414 6.7354 6.48539C9.05415 4.16666 12.7861 4.16666 20.25 4.16666C27.7138 4.16666 31.4458 4.16666 33.7647 6.48539C36.0833 8.80414 36.0833 12.5361 36.0833 20C36.0833 27.4638 36.0833 31.1958 33.7647 33.5147C31.4458 35.8333 27.7138 35.8333 20.25 35.8333C12.7861 35.8333 9.05415 35.8333 6.7354 33.5147C4.41667 31.1958 4.41667 27.4638 4.41667 20Z" stroke="#00D881" stroke-width="3" stroke-linecap="round" stroke-linejoin="round"/>
<path d="M10.237 19.1438C13.8288 19.2635 21.9735 18.7213 26.6062 11.3689M23.5705 10.4806L26.6963 9.97748C27.0773 9.92896 27.6367 10.2297 27.7742 10.5883L28.6007 13.319" stroke="#00D881" stroke-width="3" stroke-linecap="round" stroke-linejoin="round"/>
</svg>
