<svg width="25" height="25" viewBox="0 0 25 25" fill="none" xmlns="http://www.w3.org/2000/svg">
<path d="M21.25 7.16562C21.0735 7.25704 20.8678 7.27462 20.6783 7.2145C20.4888 7.15438 20.3309 7.02147 20.2394 6.84499C19.5235 5.43076 18.4399 4.23546 17.1025 3.38468C17.0192 3.33211 16.947 3.26364 16.8901 3.18317C16.8332 3.10271 16.7927 3.01183 16.771 2.91572C16.7492 2.81961 16.7466 2.72016 16.7633 2.62304C16.7799 2.52591 16.8156 2.43303 16.8681 2.34968C16.9207 2.26633 16.9892 2.19415 17.0696 2.13727C17.1501 2.08038 17.241 2.0399 17.3371 2.01814C17.4332 1.99637 17.5327 1.99375 17.6298 2.01042C17.7269 2.0271 17.8198 2.06273 17.9031 2.1153C19.4618 3.11331 20.7275 4.50739 21.5706 6.15499C21.6621 6.33154 21.6796 6.53716 21.6195 6.72667C21.5594 6.91618 21.4265 7.07406 21.25 7.16562ZM3.59783 7.24999C3.73523 7.24993 3.86998 7.21213 3.98736 7.14071C4.10474 7.06929 4.20025 6.96699 4.26346 6.84499C4.97933 5.43076 6.06291 4.23546 7.40033 3.38468C7.56866 3.27851 7.68792 3.10982 7.73187 2.91572C7.77583 2.72162 7.74087 2.51801 7.63471 2.34968C7.52854 2.18135 7.35985 2.06209 7.16575 2.01814C6.97165 1.97418 6.76804 2.00913 6.59971 2.1153C5.04102 3.11331 3.77537 4.50739 2.93221 6.15499C2.87299 6.26929 2.84419 6.39691 2.84858 6.52556C2.85297 6.65421 2.8904 6.77957 2.95726 6.88957C3.02413 6.99957 3.11818 7.0905 3.23037 7.15363C3.34256 7.21675 3.4691 7.24994 3.59783 7.24999ZM21.0447 16.9944C21.1776 17.2222 21.248 17.4811 21.2489 17.7448C21.2498 18.0086 21.1812 18.2679 21.0499 18.4967C20.9186 18.7255 20.7293 18.9156 20.501 19.0478C20.2728 19.1801 20.0138 19.2498 19.75 19.25H15.925C15.7529 20.0977 15.293 20.8598 14.6232 21.4073C13.9535 21.9547 13.115 22.2538 12.25 22.2538C11.385 22.2538 10.5466 21.9547 9.87682 21.4073C9.20707 20.8598 8.74715 20.0977 8.57502 19.25H4.75002C4.48641 19.2495 4.2276 19.1795 3.99965 19.0471C3.7717 18.9147 3.58266 18.7246 3.45158 18.4959C3.3205 18.2672 3.252 18.008 3.25299 17.7444C3.25398 17.4808 3.32441 17.2221 3.45721 16.9944C4.30189 15.5366 4.75002 13.4637 4.75002 11C4.75002 9.01087 5.54019 7.10321 6.94672 5.69669C8.35324 4.29017 10.2609 3.49999 12.25 3.49999C14.2391 3.49999 16.1468 4.29017 17.5533 5.69669C18.9598 7.10321 19.75 9.01087 19.75 11C19.75 13.4628 20.1981 15.5356 21.0447 16.9944ZM14.3706 19.25H10.1294C10.2848 19.6882 10.5721 20.0675 10.9518 20.3357C11.3316 20.604 11.7851 20.748 12.25 20.748C12.715 20.748 13.1685 20.604 13.5482 20.3357C13.9279 20.0675 14.2153 19.6882 14.3706 19.25ZM19.75 17.75C18.7525 16.0372 18.25 13.7666 18.25 11C18.25 9.40869 17.6179 7.88257 16.4927 6.75735C15.3674 5.63213 13.8413 4.99999 12.25 4.99999C10.6587 4.99999 9.1326 5.63213 8.00738 6.75735C6.88216 7.88257 6.25002 9.40869 6.25002 11C6.25002 13.7675 5.74564 16.0381 4.75002 17.75H19.75Z" fill="#3A3A3A"/>
</svg>
