<svg width="25" height="25" viewBox="0 0 25 25" fill="none" xmlns="http://www.w3.org/2000/svg">
<path d="M22 20C22 20.1989 21.921 20.3897 21.7803 20.5303C21.6397 20.671 21.4489 20.75 21.25 20.75H3.25C3.05109 20.75 2.86032 20.671 2.71967 20.5303C2.57902 20.3897 2.5 20.1989 2.5 20V5C2.5 4.80109 2.57902 4.61032 2.71967 4.46967C2.86032 4.32902 3.05109 4.25 3.25 4.25C3.44891 4.25 3.63968 4.32902 3.78033 4.46967C3.92098 4.61032 4 4.80109 4 5V13.8472L8.75594 9.6875C8.88536 9.57421 9.04978 9.50885 9.22165 9.50236C9.39353 9.49587 9.56241 9.54866 9.7 9.65188L15.2134 13.7872L20.7559 8.9375C20.8286 8.86556 20.9152 8.80925 21.0105 8.77201C21.1057 8.73478 21.2075 8.71741 21.3097 8.72097C21.4119 8.72454 21.5123 8.74896 21.6047 8.79275C21.6971 8.83653 21.7796 8.89875 21.8471 8.97558C21.9145 9.0524 21.9656 9.14222 21.9971 9.2395C22.0286 9.33678 22.0399 9.43948 22.0302 9.54128C22.0206 9.64307 21.9902 9.74182 21.941 9.83146C21.8918 9.92109 21.8248 9.99972 21.7441 10.0625L15.7441 15.3125C15.6146 15.4258 15.4502 15.4912 15.2783 15.4976C15.1065 15.5041 14.9376 15.4513 14.8 15.3481L9.28656 11.2147L4 15.8403V19.25H21.25C21.4489 19.25 21.6397 19.329 21.7803 19.4697C21.921 19.6103 22 19.8011 22 20Z" fill="#3A3A3A"/>
</svg>
