<svg width="25" height="25" viewBox="0 0 25 25" fill="none" xmlns="http://www.w3.org/2000/svg">
<path d="M20.2806 6.71938L16.5306 2.96938C16.4609 2.89975 16.3782 2.84454 16.2871 2.8069C16.1961 2.76926 16.0985 2.74992 16 2.75H8.5C8.10218 2.75 7.72064 2.90804 7.43934 3.18934C7.15804 3.47064 7 3.85218 7 4.25V5.75H5.5C5.10218 5.75 4.72064 5.90804 4.43934 6.18934C4.15804 6.47064 4 6.85218 4 7.25V20.75C4 21.1478 4.15804 21.5294 4.43934 21.8107C4.72064 22.092 5.10218 22.25 5.5 22.25H16C16.3978 22.25 16.7794 22.092 17.0607 21.8107C17.342 21.5294 17.5 21.1478 17.5 20.75V19.25H19C19.3978 19.25 19.7794 19.092 20.0607 18.8107C20.342 18.5294 20.5 18.1478 20.5 17.75V7.25C20.5001 7.15148 20.4807 7.05391 20.4431 6.96286C20.4055 6.87182 20.3503 6.78908 20.2806 6.71938ZM16 20.75H5.5V7.25H12.6897L16 10.5603V18.485C16 18.4906 16 18.4953 16 18.5C16 18.5047 16 18.5094 16 18.515V20.75ZM19 17.75H17.5V10.25C17.5001 10.1515 17.4807 10.0539 17.4431 9.96286C17.4055 9.87182 17.3503 9.78908 17.2806 9.71937L13.5306 5.96938C13.4609 5.89975 13.3782 5.84454 13.2871 5.8069C13.1961 5.76926 13.0985 5.74992 13 5.75H8.5V4.25H15.6897L19 7.56031V17.75ZM13.75 14.75C13.75 14.9489 13.671 15.1397 13.5303 15.2803C13.3897 15.421 13.1989 15.5 13 15.5H8.5C8.30109 15.5 8.11032 15.421 7.96967 15.2803C7.82902 15.1397 7.75 14.9489 7.75 14.75C7.75 14.5511 7.82902 14.3603 7.96967 14.2197C8.11032 14.079 8.30109 14 8.5 14H13C13.1989 14 13.3897 14.079 13.5303 14.2197C13.671 14.3603 13.75 14.5511 13.75 14.75ZM13.75 17.75C13.75 17.9489 13.671 18.1397 13.5303 18.2803C13.3897 18.421 13.1989 18.5 13 18.5H8.5C8.30109 18.5 8.11032 18.421 7.96967 18.2803C7.82902 18.1397 7.75 17.9489 7.75 17.75C7.75 17.5511 7.82902 17.3603 7.96967 17.2197C8.11032 17.079 8.30109 17 8.5 17H13C13.1989 17 13.3897 17.079 13.5303 17.2197C13.671 17.3603 13.75 17.5511 13.75 17.75Z" fill="#3A3A3A"/>
</svg>
