<svg width="25" height="24" viewBox="0 0 25 24" fill="none" xmlns="http://www.w3.org/2000/svg">
<path d="M19.6619 6.81281C18.6897 5.83842 17.5342 5.06612 16.2621 4.54045C14.99 4.01478 13.6264 3.74613 12.25 3.75H12.2125C6.44406 3.76968 1.75 8.53125 1.75 14.3559V16.5C1.75 16.8978 1.90804 17.2794 2.18934 17.5607C2.47064 17.842 2.85218 18 3.25 18H21.25C21.6478 18 22.0294 17.842 22.3107 17.5607C22.592 17.2794 22.75 16.8978 22.75 16.5V14.25C22.7539 12.8675 22.4828 11.4981 21.9527 10.2213C21.4225 8.94457 20.6438 7.78593 19.6619 6.81281ZM21.25 16.5H11.4728L16.6066 9.44062C16.7237 9.27975 16.7721 9.07895 16.7411 8.88239C16.7102 8.68582 16.6024 8.5096 16.4416 8.3925C16.2807 8.27539 16.0799 8.22698 15.8833 8.25792C15.6868 8.28887 15.5105 8.39662 15.3934 8.5575L9.6175 16.5H3.25V14.3559C3.25 14.0672 3.26406 13.7822 3.29031 13.5H5.5C5.69891 13.5 5.88968 13.421 6.03033 13.2803C6.17098 13.1397 6.25 12.9489 6.25 12.75C6.25 12.5511 6.17098 12.3603 6.03033 12.2197C5.88968 12.079 5.69891 12 5.5 12H3.55656C4.52406 8.35687 7.68156 5.6025 11.5 5.28187V7.5C11.5 7.69891 11.579 7.88967 11.7197 8.03033C11.8603 8.17098 12.0511 8.25 12.25 8.25C12.4489 8.25 12.6397 8.17098 12.7803 8.03033C12.921 7.88967 13 7.69891 13 7.5V5.28093C14.8606 5.43751 16.6267 6.16809 18.0542 7.37171C19.4816 8.57533 20.5001 10.1926 20.9688 12H19C18.8011 12 18.6103 12.079 18.4697 12.2197C18.329 12.3603 18.25 12.5511 18.25 12.75C18.25 12.9489 18.329 13.1397 18.4697 13.2803C18.6103 13.421 18.8011 13.5 19 13.5H21.2191C21.2388 13.7484 21.25 13.9978 21.25 14.25V16.5Z" fill="#3A3A3A"/>
</svg>
