<svg width="25" height="25" viewBox="0 0 25 25" fill="none" xmlns="http://www.w3.org/2000/svg">
<path d="M21.2499 12.5C21.2499 12.6989 21.1709 12.8897 21.0303 13.0303C20.8896 13.171 20.6988 13.25 20.4999 13.25H12.2499C12.051 13.25 11.8603 13.171 11.7196 13.0303C11.5789 12.8897 11.4999 12.6989 11.4999 12.5C11.4999 12.3011 11.5789 12.1103 11.7196 11.9697C11.8603 11.829 12.051 11.75 12.2499 11.75H20.4999C20.6988 11.75 20.8896 11.829 21.0303 11.9697C21.1709 12.1103 21.2499 12.3011 21.2499 12.5ZM12.2499 7.24999H20.4999C20.6988 7.24999 20.8896 7.17097 21.0303 7.03032C21.1709 6.88967 21.2499 6.6989 21.2499 6.49999C21.2499 6.30108 21.1709 6.11031 21.0303 5.96966C20.8896 5.82901 20.6988 5.74999 20.4999 5.74999H12.2499C12.051 5.74999 11.8603 5.82901 11.7196 5.96966C11.5789 6.11031 11.4999 6.30108 11.4999 6.49999C11.4999 6.6989 11.5789 6.88967 11.7196 7.03032C11.8603 7.17097 12.051 7.24999 12.2499 7.24999ZM20.4999 17.75H12.2499C12.051 17.75 11.8603 17.829 11.7196 17.9697C11.5789 18.1103 11.4999 18.3011 11.4999 18.5C11.4999 18.6989 11.5789 18.8897 11.7196 19.0303C11.8603 19.171 12.051 19.25 12.2499 19.25H20.4999C20.6988 19.25 20.8896 19.171 21.0303 19.0303C21.1709 18.8897 21.2499 18.6989 21.2499 18.5C21.2499 18.3011 21.1709 18.1103 21.0303 17.9697C20.8896 17.829 20.6988 17.75 20.4999 17.75ZM7.9693 4.46936L5.49993 6.93968L4.53055 5.96936C4.38982 5.82863 4.19895 5.74957 3.99993 5.74957C3.80091 5.74957 3.61003 5.82863 3.4693 5.96936C3.32857 6.1101 3.24951 6.30097 3.24951 6.49999C3.24951 6.69901 3.32857 6.88988 3.4693 7.03062L4.9693 8.53062C5.03896 8.60035 5.12167 8.65567 5.21272 8.69341C5.30377 8.73115 5.40137 8.75058 5.49993 8.75058C5.59849 8.75058 5.69609 8.73115 5.78713 8.69341C5.87818 8.65567 5.9609 8.60035 6.03055 8.53062L9.03055 5.53061C9.17128 5.38988 9.25035 5.19901 9.25035 4.99999C9.25035 4.80097 9.17128 4.6101 9.03055 4.46936C8.88982 4.32863 8.69895 4.24957 8.49993 4.24957C8.30091 4.24957 8.11003 4.32863 7.9693 4.46936ZM7.9693 10.4694L5.49993 12.9397L4.53055 11.9694C4.38982 11.8286 4.19895 11.7496 3.99993 11.7496C3.80091 11.7496 3.61003 11.8286 3.4693 11.9694C3.32857 12.1101 3.24951 12.301 3.24951 12.5C3.24951 12.5985 3.26892 12.6961 3.30663 12.7872C3.34435 12.8782 3.39962 12.9609 3.4693 13.0306L4.9693 14.5306C5.03896 14.6003 5.12167 14.6557 5.21272 14.6934C5.30377 14.7312 5.40137 14.7506 5.49993 14.7506C5.59849 14.7506 5.69609 14.7312 5.78713 14.6934C5.87818 14.6557 5.9609 14.6003 6.03055 14.5306L9.03055 11.5306C9.17128 11.3899 9.25035 11.199 9.25035 11C9.25035 10.801 9.17128 10.6101 9.03055 10.4694C8.88982 10.3286 8.69895 10.2496 8.49993 10.2496C8.30091 10.2496 8.11003 10.3286 7.9693 10.4694ZM7.9693 16.4694L5.49993 18.9397L4.53055 17.9694C4.46087 17.8997 4.37815 17.8444 4.2871 17.8067C4.19606 17.769 4.09847 17.7496 3.99993 17.7496C3.90138 17.7496 3.8038 17.769 3.71276 17.8067C3.62171 17.8444 3.53899 17.8997 3.4693 17.9694C3.39962 18.039 3.34435 18.1218 3.30663 18.2128C3.26892 18.3039 3.24951 18.4014 3.24951 18.5C3.24951 18.5985 3.26892 18.6961 3.30663 18.7872C3.34435 18.8782 3.39962 18.9609 3.4693 19.0306L4.9693 20.5306C5.03896 20.6003 5.12167 20.6557 5.21272 20.6934C5.30377 20.7312 5.40137 20.7506 5.49993 20.7506C5.59849 20.7506 5.69609 20.7312 5.78713 20.6934C5.87818 20.6557 5.9609 20.6003 6.03055 20.5306L9.03055 17.5306C9.17128 17.3899 9.25035 17.199 9.25035 17C9.25035 16.801 9.17128 16.6101 9.03055 16.4694C8.88982 16.3286 8.69895 16.2496 8.49993 16.2496C8.30091 16.2496 8.11003 16.3286 7.9693 16.4694Z" fill="#3A3A3A"/>
</svg>
