<svg width="41" height="40" viewBox="0 0 41 40" fill="none" xmlns="http://www.w3.org/2000/svg">
<path d="M7.36302 31.4078C7.73782 34.1917 10.0436 36.3725 12.8494 36.5015C15.2105 36.61 17.6088 36.6667 20.25 36.6667C22.8912 36.6667 25.2895 36.61 27.6505 36.5015C30.4565 36.3725 32.7622 34.1917 33.137 31.4078C33.3817 29.5912 33.5833 27.7293 33.5833 25.8333C33.5833 23.9373 33.3817 22.0755 33.137 20.2588C32.7622 17.475 30.4565 15.2941 27.6505 15.1651C25.2895 15.0566 22.8912 15 20.25 15C17.6088 15 15.2105 15.0566 12.8494 15.1651C10.0436 15.2941 7.73782 17.475 7.36302 20.2588C7.1184 22.0755 6.91667 23.9373 6.91667 25.8333C6.91667 27.7293 7.1184 29.5912 7.36302 31.4078Z" stroke="#468DB9" stroke-width="3"/>
<path d="M12.75 15V10.8333C12.75 6.69118 16.1079 3.33331 20.25 3.33331C24.3922 3.33331 27.75 6.69118 27.75 10.8333V15" stroke="#468DB9" stroke-width="3" stroke-linecap="round" stroke-linejoin="round"/>
</svg>
