<svg width="112" height="38" viewBox="0 0 112 38" fill="none" xmlns="http://www.w3.org/2000/svg">
<path d="M0 11.9856V25.9166C0 26.9818 0.564863 27.9671 1.48409 28.5054L16.1185 37.0747C17.0887 37.6428 18.2951 37.6208 19.2439 37.0176L32.6095 28.5204C33.4755 27.9698 34 27.0148 34 25.9887V12.1059C34 11.0287 33.4224 10.0341 32.4867 9.50022L17.4296 0.909429C16.4512 0.351222 15.2426 0.388107 14.3001 1.00493L1.35719 9.47542C0.510323 10.0297 0 10.9735 0 11.9856Z" fill="url(#paint0_linear_445_29)"/>
<circle cx="17" cy="19" r="7" fill="#F5F5F5"/>
<path d="M57.056 10.248V12.96H52.592V27H49.232V12.96H44.768V10.248H57.056ZM61.2116 12.12C60.6196 12.12 60.1236 11.936 59.7236 11.568C59.3396 11.184 59.1476 10.712 59.1476 10.152C59.1476 9.592 59.3396 9.128 59.7236 8.76C60.1236 8.376 60.6196 8.184 61.2116 8.184C61.8036 8.184 62.2916 8.376 62.6756 8.76C63.0756 9.128 63.2756 9.592 63.2756 10.152C63.2756 10.712 63.0756 11.184 62.6756 11.568C62.2916 11.936 61.8036 12.12 61.2116 12.12ZM62.8676 13.704V27H59.5076V13.704H62.8676ZM65.3232 20.304C65.3232 18.96 65.5872 17.768 66.1152 16.728C66.6593 15.688 67.3873 14.888 68.2993 14.328C69.2273 13.768 70.2593 13.488 71.3953 13.488C72.3873 13.488 73.2513 13.688 73.9873 14.088C74.7393 14.488 75.3393 14.992 75.7873 15.6V13.704H79.1713V27H75.7873V25.056C75.3553 25.68 74.7553 26.2 73.9873 26.616C73.2353 27.016 72.3633 27.216 71.3713 27.216C70.2513 27.216 69.2273 26.928 68.2993 26.352C67.3873 25.776 66.6593 24.968 66.1152 23.928C65.5872 22.872 65.3232 21.664 65.3232 20.304ZM75.7873 20.352C75.7873 19.536 75.6273 18.84 75.3073 18.264C74.9873 17.672 74.5553 17.224 74.0113 16.92C73.4673 16.6 72.8833 16.44 72.2593 16.44C71.6353 16.44 71.0593 16.592 70.5312 16.896C70.0033 17.2 69.5713 17.648 69.2353 18.24C68.9153 18.816 68.7553 19.504 68.7553 20.304C68.7553 21.104 68.9153 21.808 69.2353 22.416C69.5713 23.008 70.0033 23.464 70.5312 23.784C71.0753 24.104 71.6513 24.264 72.2593 24.264C72.8833 24.264 73.4673 24.112 74.0113 23.808C74.5553 23.488 74.9873 23.04 75.3073 22.464C75.6273 21.872 75.7873 21.168 75.7873 20.352ZM90.3249 27L85.8129 21.336V27H82.4529V9.24H85.8129V19.344L90.2769 13.704H94.6449L88.7889 20.376L94.6929 27H90.3249ZM95.6045 20.304C95.6045 18.96 95.8685 17.768 96.3965 16.728C96.9405 15.688 97.6685 14.888 98.5805 14.328C99.5085 13.768 100.541 13.488 101.677 13.488C102.669 13.488 103.533 13.688 104.269 14.088C105.021 14.488 105.621 14.992 106.069 15.6V13.704H109.453V27H106.069V25.056C105.637 25.68 105.037 26.2 104.269 26.616C103.517 27.016 102.645 27.216 101.653 27.216C100.533 27.216 99.5085 26.928 98.5805 26.352C97.6685 25.776 96.9405 24.968 96.3965 23.928C95.8685 22.872 95.6045 21.664 95.6045 20.304ZM106.069 20.352C106.069 19.536 105.909 18.84 105.589 18.264C105.269 17.672 104.837 17.224 104.293 16.92C103.749 16.6 103.165 16.44 102.541 16.44C101.917 16.44 101.341 16.592 100.812 16.896C100.285 17.2 99.8525 17.648 99.5165 18.24C99.1965 18.816 99.0365 19.504 99.0365 20.304C99.0365 21.104 99.1965 21.808 99.5165 22.416C99.8525 23.008 100.285 23.464 100.812 23.784C101.357 24.104 101.933 24.264 102.541 24.264C103.165 24.264 103.749 24.112 104.293 23.808C104.837 23.488 105.269 23.04 105.589 22.464C105.909 21.872 106.069 21.168 106.069 20.352Z" fill="#202634"/>
<defs>
<linearGradient id="paint0_linear_445_29" x1="17" y1="0" x2="17" y2="38" gradientUnits="userSpaceOnUse">
<stop stop-color="#4A25E1"/>
<stop offset="1" stop-color="#3A2499"/>
</linearGradient>
</defs>
</svg>
