<svg width="25" height="25" viewBox="0 0 25 25" fill="none" xmlns="http://www.w3.org/2000/svg">
<path d="M4.75022 6.5C4.75022 6.30109 4.82924 6.11032 4.96989 5.96967C5.11055 5.82902 5.30131 5.75 5.50022 5.75H7.00022V4.25C7.00022 4.05109 7.07924 3.86032 7.21989 3.71967C7.36055 3.57902 7.55131 3.5 7.75022 3.5C7.94914 3.5 8.1399 3.57902 8.28055 3.71967C8.4212 3.86032 8.50022 4.05109 8.50022 4.25V5.75H10.0002C10.1991 5.75 10.3899 5.82902 10.5306 5.96967C10.6712 6.11032 10.7502 6.30109 10.7502 6.5C10.7502 6.69891 10.6712 6.88968 10.5306 7.03033C10.3899 7.17098 10.1991 7.25 10.0002 7.25H8.50022V8.75C8.50022 8.94891 8.4212 9.13968 8.28055 9.28033C8.1399 9.42098 7.94914 9.5 7.75022 9.5C7.55131 9.5 7.36055 9.42098 7.21989 9.28033C7.07924 9.13968 7.00022 8.94891 7.00022 8.75V7.25H5.50022C5.30131 7.25 5.11055 7.17098 4.96989 7.03033C4.82924 6.88968 4.75022 6.69891 4.75022 6.5ZM17.5002 18.5H16.7502V17.75C16.7502 17.5511 16.6712 17.3603 16.5306 17.2197C16.3899 17.079 16.1991 17 16.0002 17C15.8013 17 15.6105 17.079 15.4699 17.2197C15.3292 17.3603 15.2502 17.5511 15.2502 17.75V18.5H14.5002C14.3013 18.5 14.1105 18.579 13.9699 18.7197C13.8292 18.8603 13.7502 19.0511 13.7502 19.25C13.7502 19.4489 13.8292 19.6397 13.9699 19.7803C14.1105 19.921 14.3013 20 14.5002 20H15.2502V20.75C15.2502 20.9489 15.3292 21.1397 15.4699 21.2803C15.6105 21.421 15.8013 21.5 16.0002 21.5C16.1991 21.5 16.3899 21.421 16.5306 21.2803C16.6712 21.1397 16.7502 20.9489 16.7502 20.75V20H17.5002C17.6991 20 17.8899 19.921 18.0306 19.7803C18.1712 19.6397 18.2502 19.4489 18.2502 19.25C18.2502 19.0511 18.1712 18.8603 18.0306 18.7197C17.8899 18.579 17.6991 18.5 17.5002 18.5ZM22.7502 14H21.2502V12.5C21.2502 12.3011 21.1712 12.1103 21.0306 11.9697C20.8899 11.829 20.6991 11.75 20.5002 11.75C20.3013 11.75 20.1105 11.829 19.9699 11.9697C19.8292 12.1103 19.7502 12.3011 19.7502 12.5V14H18.2502C18.0513 14 17.8605 14.079 17.7199 14.2197C17.5792 14.3603 17.5002 14.5511 17.5002 14.75C17.5002 14.9489 17.5792 15.1397 17.7199 15.2803C17.8605 15.421 18.0513 15.5 18.2502 15.5H19.7502V17C19.7502 17.1989 19.8292 17.3897 19.9699 17.5303C20.1105 17.671 20.3013 17.75 20.5002 17.75C20.6991 17.75 20.8899 17.671 21.0306 17.5303C21.1712 17.3897 21.2502 17.1989 21.2502 17V15.5H22.7502C22.9491 15.5 23.1399 15.421 23.2806 15.2803C23.4212 15.1397 23.5002 14.9489 23.5002 14.75C23.5002 14.5511 23.4212 14.3603 23.2806 14.2197C23.1399 14.079 22.9491 14 22.7502 14ZM20.8105 8L7.75022 21.0603C7.46895 21.3414 7.08756 21.4993 6.68991 21.4993C6.29226 21.4993 5.91087 21.3414 5.6296 21.0603L3.68897 19.1216C3.54965 18.9823 3.43913 18.8169 3.36373 18.6349C3.28832 18.4529 3.24951 18.2578 3.24951 18.0608C3.24951 17.8638 3.28832 17.6687 3.36373 17.4867C3.43913 17.3047 3.54965 17.1393 3.68897 17L16.7502 3.93969C16.8895 3.80036 17.0549 3.68984 17.2369 3.61444C17.4189 3.53904 17.614 3.50023 17.811 3.50023C18.008 3.50023 18.2031 3.53904 18.3851 3.61444C18.5671 3.68984 18.7325 3.80036 18.8718 3.93969L20.8105 5.87844C20.9499 6.01773 21.0604 6.1831 21.1358 6.36511C21.2112 6.54713 21.25 6.74221 21.25 6.93922C21.25 7.13623 21.2112 7.33131 21.1358 7.51332C21.0604 7.69533 20.9499 7.86071 20.8105 8ZM15.689 11L13.7502 9.06031L4.75022 18.0603L6.68897 20L15.689 11ZM19.7502 6.93969L17.8105 5L14.8105 8L16.7502 9.93969L19.7502 6.93969Z" fill="#3A3A3A"/>
</svg>
