<svg width="1202" height="455" viewBox="0 0 1202 455" fill="none" xmlns="http://www.w3.org/2000/svg">
<g clip-path="url(#clip0_378_468)">
<rect x="0.25" width="1201.5" height="455" rx="24" fill="#603CFF"/>
<path opacity="0.1" d="M1153.52 535.475C1122.49 513.006 1099.47 481.326 1087.8 445.02C1076.13 408.715 1076.41 369.668 1088.61 333.532C1100.8 297.397 1124.28 266.047 1155.63 244.022C1186.99 221.997 1224.6 210.439 1263.02 211.021L1262.1 270.559C1236.42 270.17 1211.29 277.894 1190.34 292.613C1169.38 307.332 1153.69 328.282 1145.55 352.43C1137.4 376.579 1137.21 402.672 1145.01 426.934C1152.81 451.196 1168.19 472.367 1188.93 487.383L1153.52 535.475Z" fill="black"/>
<path opacity="0.1" d="M111.733 -16.2328C123.84 27.2913 118.962 73.7415 98.0737 113.858C77.185 153.975 41.819 184.812 -0.974287 200.222L-14.963 162.016C18.14 150.095 45.4975 126.241 61.6561 95.2088C77.8147 64.1761 81.5875 28.2443 72.2224 -5.424L111.733 -16.2328Z" fill="black"/>
<circle cx="312.25" cy="391" r="27" fill="black" fill-opacity="0.1"/>
<circle cx="1099.25" cy="32" r="27" fill="black" fill-opacity="0.1"/>
</g>
<defs>
<clipPath id="clip0_378_468">
<rect x="0.25" width="1201.5" height="455" rx="24" fill="white"/>
</clipPath>
</defs>
</svg>
