<svg width="25" height="25" viewBox="0 0 25 25" fill="none" xmlns="http://www.w3.org/2000/svg">
<path d="M21.0504 8.29626C22.0912 10.4729 22.2887 12.958 21.605 15.2718C20.9213 17.5856 19.4047 19.5641 17.348 20.8255C15.2913 22.0868 12.8402 22.5417 10.4679 22.1022C8.09557 21.6627 5.97013 20.36 4.50179 18.4455C3.03344 16.5311 2.3263 14.1406 2.51682 11.7354C2.70735 9.33024 3.78204 7.0809 5.53348 5.42151C7.28492 3.76211 9.58895 2.8103 12.0009 2.74978C14.4128 2.68925 16.7617 3.5243 18.5942 5.09376L20.7195 2.96751C20.8602 2.82678 21.0511 2.74771 21.2501 2.74771C21.4491 2.74771 21.64 2.82678 21.7807 2.96751C21.9215 3.10824 22.0005 3.29911 22.0005 3.49813C22.0005 3.69715 21.9215 3.88803 21.7807 4.02876L12.7807 13.0288C12.64 13.1695 12.4491 13.2485 12.2501 13.2485C12.0511 13.2485 11.8602 13.1695 11.7195 13.0288C11.5788 12.888 11.4997 12.6972 11.4997 12.4981C11.4997 12.2991 11.5788 12.1082 11.7195 11.9675L14.3182 9.36876C13.6139 8.90296 12.7731 8.6885 11.9317 8.76008C11.0904 8.83166 10.2978 9.1851 9.68231 9.76318C9.06683 10.3413 8.66446 11.1101 8.54034 11.9454C8.41622 12.7806 8.57762 13.6332 8.9984 14.3653C9.41919 15.0974 10.0747 15.666 10.8589 15.9792C11.6431 16.2923 12.51 16.3316 13.3193 16.0908C14.1286 15.8499 14.8329 15.343 15.3183 14.652C15.8036 13.961 16.0415 13.1265 15.9935 12.2834C15.988 12.185 16.0019 12.0863 16.0345 11.9932C16.0671 11.9001 16.1177 11.8143 16.1834 11.7408C16.2491 11.6672 16.3287 11.6073 16.4176 11.5645C16.5064 11.5217 16.6029 11.4968 16.7014 11.4913C16.9003 11.4801 17.0955 11.5484 17.244 11.6811C17.3176 11.7468 17.3775 11.8264 17.4203 11.9153C17.4631 12.0041 17.488 12.1006 17.4935 12.1991C17.5619 13.3923 17.2211 14.5731 16.5274 15.5464C15.8338 16.5197 14.8288 17.2272 13.6785 17.5519C12.5283 17.8767 11.3017 17.7992 10.2015 17.3324C9.10123 16.8655 8.19322 16.0372 7.6275 14.9844C7.06178 13.9316 6.87223 12.7172 7.09017 11.5421C7.30811 10.3669 7.92049 9.30133 8.82611 8.52138C9.73173 7.74142 10.8764 7.29382 12.0708 7.25255C13.2653 7.21127 14.4381 7.5788 15.3954 8.29438L17.5282 6.16157C15.9652 4.86388 13.9779 4.18941 11.9479 4.2677C9.91793 4.346 7.98844 5.17153 6.53003 6.58576C5.07163 7.99998 4.18715 9.90317 4.04646 11.9298C3.90578 13.9564 4.51881 15.9635 5.76782 17.5657C7.01683 19.1679 8.81375 20.2521 10.8134 20.6101C12.8131 20.9682 14.8746 20.5747 16.6019 19.5055C18.3292 18.4362 19.6006 16.7664 20.1718 14.8169C20.743 12.8674 20.5738 10.7755 19.6967 8.94313C19.6109 8.76361 19.5999 8.55737 19.6662 8.36978C19.7325 8.18218 19.8706 8.0286 20.0501 7.94282C20.2296 7.85704 20.4359 7.84608 20.6235 7.91237C20.8111 7.97865 20.9646 8.11674 21.0504 8.29626Z" fill="#3A3A3A"/>
</svg>
