<svg width="25" height="25" viewBox="0 0 25 25" fill="none" xmlns="http://www.w3.org/2000/svg">
<path d="M18.773 12.5994L13.9374 10.8125L12.1562 5.97313C12.0507 5.68656 11.8598 5.43924 11.6094 5.26455C11.3589 5.08985 11.0609 4.99619 10.7555 4.99619C10.4502 4.99619 10.1522 5.08985 9.90169 5.26455C9.65124 5.43924 9.46039 5.68656 9.35491 5.97313L7.5624 10.8125L2.72303 12.5938C2.43646 12.6992 2.18915 12.8901 2.01445 13.1405C1.83976 13.391 1.74609 13.689 1.74609 13.9944C1.74609 14.2997 1.83976 14.5978 2.01445 14.8482C2.18915 15.0987 2.43646 15.2895 2.72303 15.395L7.5624 17.1875L9.34366 22.0269C9.44914 22.3134 9.63998 22.5608 9.89044 22.7355C10.1409 22.9101 10.4389 23.0038 10.7443 23.0038C11.0496 23.0038 11.3477 22.9101 11.5981 22.7355C11.8486 22.5608 12.0394 22.3134 12.1449 22.0269L13.9374 17.1875L18.7768 15.4062C19.0633 15.3008 19.3107 15.1099 19.4854 14.8595C19.6601 14.609 19.7537 14.311 19.7537 14.0056C19.7537 13.7003 19.6601 13.4022 19.4854 13.1518C19.3107 12.9013 19.0633 12.7105 18.7768 12.605L18.773 12.5994ZM13.0937 15.8956C12.9919 15.9331 12.8994 15.9923 12.8227 16.069C12.746 16.1457 12.6868 16.2382 12.6493 16.34L10.7499 21.4859L8.85428 16.3438C8.81682 16.2409 8.75729 16.1474 8.67988 16.07C8.60246 15.9926 8.50903 15.9331 8.40616 15.8956L3.26397 14L8.40616 12.1044C8.50903 12.0669 8.60246 12.0074 8.67988 11.93C8.75729 11.8526 8.81682 11.7591 8.85428 11.6562L10.7499 6.51406L12.6455 11.6562C12.683 11.7581 12.7422 11.8505 12.8189 11.9272C12.8956 12.0039 12.9881 12.0631 13.0899 12.1006L18.2358 14L13.0937 15.8956ZM13.7499 4.25C13.7499 4.05109 13.8289 3.86032 13.9696 3.71967C14.1102 3.57902 14.301 3.5 14.4999 3.5H15.9999V2C15.9999 1.80109 16.0789 1.61032 16.2196 1.46967C16.3602 1.32902 16.551 1.25 16.7499 1.25C16.9488 1.25 17.1396 1.32902 17.2802 1.46967C17.4209 1.61032 17.4999 1.80109 17.4999 2V3.5H18.9999C19.1988 3.5 19.3896 3.57902 19.5302 3.71967C19.6709 3.86032 19.7499 4.05109 19.7499 4.25C19.7499 4.44891 19.6709 4.63968 19.5302 4.78033C19.3896 4.92098 19.1988 5 18.9999 5H17.4999V6.5C17.4999 6.69891 17.4209 6.88968 17.2802 7.03033C17.1396 7.17098 16.9488 7.25 16.7499 7.25C16.551 7.25 16.3602 7.17098 16.2196 7.03033C16.0789 6.88968 15.9999 6.69891 15.9999 6.5V5H14.4999C14.301 5 14.1102 4.92098 13.9696 4.78033C13.8289 4.63968 13.7499 4.44891 13.7499 4.25ZM23.4999 8.75C23.4999 8.94891 23.4209 9.13968 23.2802 9.28033C23.1396 9.42098 22.9488 9.5 22.7499 9.5H21.9999V10.25C21.9999 10.4489 21.9209 10.6397 21.7802 10.7803C21.6396 10.921 21.4488 11 21.2499 11C21.051 11 20.8602 10.921 20.7196 10.7803C20.5789 10.6397 20.4999 10.4489 20.4999 10.25V9.5H19.7499C19.551 9.5 19.3602 9.42098 19.2196 9.28033C19.0789 9.13968 18.9999 8.94891 18.9999 8.75C18.9999 8.55109 19.0789 8.36032 19.2196 8.21967C19.3602 8.07902 19.551 8 19.7499 8H20.4999V7.25C20.4999 7.05109 20.5789 6.86032 20.7196 6.71967C20.8602 6.57902 21.051 6.5 21.2499 6.5C21.4488 6.5 21.6396 6.57902 21.7802 6.71967C21.9209 6.86032 21.9999 7.05109 21.9999 7.25V8H22.7499C22.9488 8 23.1396 8.07902 23.2802 8.21967C23.4209 8.36032 23.4999 8.55109 23.4999 8.75Z" fill="#3A3A3A"/>
</svg>
